<svg xmlns="http://www.w3.org/2000/svg" version="1.1" xmlns:xlink="http://www.w3.org/1999/xlink" xmlns:svgjs="http://svgjs.com/svgjs" width="59" height="61"><svg width="59" height="61" viewBox="0 0 59 61" fill="none" xmlns="http://www.w3.org/2000/svg">
<path d="M29.5981 57.7028C45.3925 57.7028 58.1963 44.7856 58.1963 28.8514C58.1963 12.9173 45.3925 6.10352e-05 29.5981 6.10352e-05C13.8038 6.10352e-05 0.999984 12.9173 0.999984 28.8514C0.999984 44.7856 13.8038 57.7028 29.5981 57.7028Z" fill="#FF0101"></path>
<path d="M41.9174 16.4231C44.5556 16.4231 46.6942 14.2655 46.6942 11.604C46.6942 8.94245 44.5556 6.78485 41.9174 6.78485C39.2792 6.78485 37.1406 8.94245 37.1406 11.604C37.1406 14.2655 39.2792 16.4231 41.9174 16.4231Z" fill="#020203"></path>
<path d="M40.5346 29.422C40.8489 29.9293 41.4146 30.2464 42.0431 30.2464C42.3574 30.2464 42.6716 30.183 42.9859 29.9927L51.5968 24.7931C52.4767 24.2859 52.7281 23.1445 52.2253 22.3202C51.7225 21.4324 50.5911 21.1788 49.774 21.6861L42.6088 25.9979L39.1519 19.2131C38.2091 18.262 37.1406 17.3108 36.0721 16.4865L25.827 11.2869C25.1356 10.9699 24.3814 11.0333 23.8157 11.5405L15.2677 19.3399C14.5134 20.0374 14.4506 21.1788 15.142 21.8763C15.8334 22.6372 16.9647 22.7006 17.6561 22.0031L25.387 15.0281L30.7295 17.7547L21.553 32.0852L0.622904 57.0686C-0.194187 58.0198 -0.131334 59.5416 0.874316 60.3659C1.81711 61.1902 3.32559 61.1268 4.14268 60.1123L24.4442 36.4605L33.1808 38.4896L27.2098 47.9376C26.5812 49.079 26.9584 50.474 28.0897 51.1081C29.0954 51.6788 30.4153 51.4252 31.1067 50.4106L38.7747 38.1726C39.2147 37.5385 39.2776 36.7141 39.0261 36.0166C38.7119 35.3191 38.1462 34.8119 37.392 34.685L30.6667 33.0998L36.7634 23.4615L40.5346 29.422Z" fill="#020203"></path>
</svg><style>@media (prefers-color-scheme: light) { :root { filter: none; } }
</style></svg>