<?xml version="1.0" standalone="no"?>
<!DOCTYPE svg PUBLIC "-//W3C//DTD SVG 20010904//EN"
 "http://www.w3.org/TR/2001/REC-SVG-20010904/DTD/svg10.dtd">
<svg version="1.0" xmlns="http://www.w3.org/2000/svg"
 width="976.000000pt" height="976.000000pt" viewBox="0 0 976.000000 976.000000"
 preserveAspectRatio="xMidYMid meet">
<metadata>
Created by potrace 1.14, written by Peter Selinger 2001-2017
</metadata>
<g transform="translate(0.000000,976.000000) scale(0.100000,-0.100000)"
fill="#000000" stroke="none">
<path d="M4628 9754 c-2 -2 -41 -6 -87 -9 -80 -4 -137 -10 -211 -21 -19 -3
-53 -7 -75 -9 -22 -3 -51 -7 -65 -10 -14 -3 -47 -8 -75 -11 -27 -4 -58 -10
-67 -16 -10 -5 -18 -7 -18 -5 0 4 -178 -33 -230 -47 -8 -2 -51 -13 -95 -25
-74 -19 -311 -93 -345 -108 -8 -3 -17 -7 -20 -8 -21 -5 -60 -19 -85 -30 -16
-7 -75 -32 -130 -55 -113 -47 -350 -163 -440 -215 -33 -19 -69 -39 -80 -44
-11 -5 -55 -32 -98 -60 -43 -28 -80 -51 -83 -51 -5 0 -65 -40 -74 -50 -3 -3
-38 -28 -77 -55 -40 -26 -73 -53 -73 -57 0 -5 -4 -6 -10 -3 -5 3 -15 -3 -22
-15 -7 -11 -17 -20 -21 -20 -9 0 -195 -149 -238 -191 -16 -16 -29 -26 -29 -24
0 2 -15 -10 -33 -28 -19 -18 -69 -66 -113 -108 -126 -121 -232 -236 -347 -374
-32 -38 -67 -80 -78 -93 -10 -12 -19 -26 -19 -31 0 -5 -4 -11 -9 -13 -7 -2
-93 -117 -139 -184 -6 -11 -35 -52 -62 -92 -28 -40 -50 -75 -50 -79 0 -3 -11
-21 -25 -39 -14 -18 -25 -35 -25 -39 0 -3 -11 -22 -23 -43 -71 -113 -239 -444
-253 -499 -4 -13 -10 -23 -13 -23 -4 0 -8 -6 -8 -12 -1 -7 -20 -60 -43 -118
-46 -117 -147 -416 -156 -465 -1 -5 -9 -37 -18 -70 -21 -76 -23 -84 -30 -130
-4 -20 -8 -40 -10 -44 -2 -3 -7 -24 -11 -46 -4 -22 -9 -49 -11 -60 -7 -36 -34
-189 -39 -225 -10 -73 -18 -136 -21 -175 -9 -99 -16 -205 -18 -266 -1 -36 -6
-70 -9 -76 -4 -7 -3 -14 1 -17 10 -6 9 -36 -1 -53 -4 -6 -3 -14 2 -18 7 -4 7
-15 1 -30 -6 -16 -6 -25 0 -25 6 0 6 -9 1 -22 -5 -13 -5 -33 0 -45 5 -13 4
-25 -2 -28 -5 -4 -6 -12 -2 -18 4 -6 8 -45 9 -87 3 -87 10 -195 20 -295 4 -38
8 -78 8 -87 0 -10 3 -18 6 -18 3 0 5 -12 4 -27 0 -15 8 -72 18 -127 25 -134
31 -167 32 -193 1 -13 4 -23 9 -23 4 0 7 -12 7 -26 0 -14 5 -35 11 -46 9 -16
8 -19 -2 -13 -8 6 -10 4 -3 -6 4 -8 10 -18 11 -24 1 -5 10 -37 18 -70 9 -33
18 -67 20 -75 2 -8 4 -15 5 -15 1 0 3 -7 5 -16 5 -26 55 -193 65 -214 4 -11
21 -56 36 -100 15 -44 33 -93 40 -110 7 -16 20 -48 30 -70 9 -22 19 -49 21
-60 2 -11 8 -21 13 -23 6 -2 10 -10 10 -18 0 -18 108 -243 128 -266 8 -10 12
-18 8 -18 -4 0 1 -15 12 -32 11 -18 31 -53 44 -78 59 -106 132 -227 151 -247
11 -13 17 -23 13 -23 -3 0 12 -25 34 -55 22 -30 40 -57 40 -60 0 -4 6 -13 12
-20 30 -33 38 -45 38 -55 0 -5 3 -10 8 -10 4 0 18 -17 32 -38 14 -20 27 -39
30 -42 3 -3 30 -36 60 -75 30 -38 62 -79 72 -90 60 -68 79 -96 72 -107 -10
-15 -41 -53 -75 -90 -15 -15 -35 -40 -45 -54 -11 -14 -28 -36 -39 -48 -11 -13
-31 -36 -44 -52 -13 -16 -36 -43 -50 -59 -14 -17 -41 -50 -59 -73 -19 -22 -44
-52 -55 -65 -12 -13 -38 -43 -57 -67 -19 -24 -39 -48 -45 -54 -5 -6 -44 -51
-85 -101 -41 -49 -79 -95 -85 -101 -37 -42 -101 -119 -108 -131 -4 -7 -18 -23
-30 -36 -12 -13 -38 -43 -59 -67 -20 -25 -46 -56 -58 -70 -31 -36 -49 -58
-100 -120 -24 -30 -54 -66 -67 -80 -22 -26 -74 -87 -132 -158 -46 -56 -75
-109 -88 -160 -12 -45 -14 -170 -4 -187 3 -5 6 -15 7 -22 5 -33 54 -112 94
-151 25 -25 74 -59 110 -76 58 -28 74 -31 155 -30 78 0 98 4 149 28 76 37 94
55 376 386 101 118 189 220 194 226 6 6 31 36 56 65 25 30 57 66 72 81 14 16
24 28 22 28 -4 0 29 38 86 100 8 9 32 36 52 60 20 25 49 59 63 75 15 17 45 52
68 79 23 28 51 60 62 72 27 29 51 58 105 124 25 30 52 61 61 70 9 8 39 43 69
78 49 59 53 61 69 45 9 -10 43 -38 76 -63 33 -25 62 -48 63 -52 2 -5 10 -8 17
-8 7 0 15 -4 17 -8 2 -5 55 -43 118 -85 63 -43 120 -80 125 -85 11 -8 148 -90
180 -108 11 -6 45 -24 75 -41 59 -33 162 -86 170 -88 3 -1 54 -25 113 -53 59
-29 112 -52 117 -52 5 0 24 -8 42 -18 18 -9 51 -23 73 -31 22 -7 55 -20 74
-28 18 -8 39 -16 45 -17 6 -1 16 -5 22 -8 6 -4 21 -9 35 -12 13 -3 44 -13 69
-22 25 -9 52 -17 60 -19 8 -2 35 -10 60 -18 43 -15 116 -35 132 -37 4 -1 22
-6 40 -11 18 -6 42 -12 53 -14 11 -3 31 -7 45 -11 14 -3 39 -7 55 -10 17 -3
37 -8 45 -11 8 -3 22 -7 30 -8 38 -6 96 -16 110 -20 8 -2 35 -6 60 -9 25 -3
56 -8 70 -11 14 -3 48 -7 75 -10 28 -2 66 -6 85 -9 274 -39 766 -35 1085 10
28 3 61 8 75 10 50 6 110 17 200 34 61 12 89 18 123 24 44 8 293 75 335 90 23
8 44 16 47 16 10 1 32 9 110 36 44 16 85 29 90 30 18 4 240 96 250 104 6 4 25
11 43 15 17 3 32 11 32 16 0 5 5 9 11 9 20 0 306 147 381 196 21 13 40 24 42
24 4 0 67 39 146 90 61 39 239 166 256 181 11 10 26 19 32 19 7 0 12 4 12 9 0
4 17 20 38 34 20 14 49 36 63 49 15 13 48 41 74 63 109 92 424 395 411 395 -3
0 13 18 35 41 21 22 56 62 76 87 21 26 43 52 49 57 6 6 26 30 45 55 18 25 36
47 39 50 4 3 43 57 88 120 45 63 89 122 97 131 8 9 15 20 15 25 0 6 8 19 18
30 10 10 19 22 20 27 1 4 18 33 38 65 21 31 46 73 57 92 47 82 88 158 109 200
13 25 26 47 31 48 4 2 7 9 7 15 0 7 18 48 40 92 22 44 40 86 40 93 0 6 5 12
10 12 6 0 10 8 10 18 0 10 4 22 8 28 5 5 19 36 32 69 12 33 28 74 35 90 23 57
40 100 40 105 1 3 12 37 25 75 13 39 25 72 25 75 1 3 4 12 8 20 12 32 68 232
74 265 2 11 6 27 10 35 3 8 7 22 8 30 1 8 11 58 23 110 11 52 23 110 26 128 4
17 9 47 12 65 4 17 7 44 7 60 -1 15 2 27 6 27 6 0 10 37 14 118 1 12 3 22 7
22 3 0 5 15 5 33 1 17 5 70 9 117 11 111 13 647 3 775 -8 97 -11 127 -22 210
-3 22 -6 47 -7 55 0 8 -7 51 -15 95 -14 82 -18 108 -27 160 -2 17 -10 53 -16
80 -6 28 -13 58 -15 68 -2 10 -6 26 -9 35 -3 9 -8 28 -10 42 -3 14 -13 52 -21
85 -9 33 -17 66 -17 73 -1 6 -5 12 -10 12 -5 0 -7 4 -4 8 3 5 -19 80 -49 168
-30 87 -57 166 -59 174 -5 16 -77 192 -103 250 -43 97 -168 345 -175 348 -4 2
-8 8 -8 13 0 5 -18 39 -40 75 -22 36 -40 68 -40 70 0 2 -30 50 -67 106 -38 57
-70 107 -72 113 -2 5 -8 14 -13 20 -5 5 -44 58 -86 116 -170 233 -385 473
-598 667 -104 96 -115 105 -174 152 -30 24 -59 48 -65 54 -15 16 -204 156
-210 156 -3 0 -15 9 -26 19 -12 11 -49 36 -83 57 -33 21 -62 41 -64 46 -2 4
-8 8 -12 8 -5 0 -28 13 -52 29 -48 32 -98 62 -173 101 -79 42 -100 54 -106 63
-3 5 -8 8 -10 6 -2 -1 -24 9 -49 22 -25 13 -47 24 -50 24 -19 5 -48 20 -62 33
-10 8 -18 12 -18 8 0 -3 -22 5 -49 18 -66 34 -270 116 -287 116 -8 0 -14 5
-14 12 0 6 -3 9 -6 6 -3 -3 -29 3 -57 14 -91 34 -166 56 -172 50 -3 -3 -5 0
-5 6 0 7 -3 11 -7 10 -8 -1 -58 10 -83 19 -8 3 -22 7 -30 8 -27 5 -60 14 -93
24 -27 9 -114 29 -194 46 -13 3 -33 7 -45 10 -13 3 -39 8 -58 10 -19 3 -46 8
-60 12 -14 3 -38 7 -55 8 -16 1 -30 3 -30 4 0 2 -16 4 -35 6 -19 1 -51 5 -70
8 -19 3 -66 9 -105 12 -38 4 -83 9 -100 11 -38 6 -632 13 -637 8z"/>
</g>
</svg>
