<svg width="38" height="32" viewBox="0 0 38 32" fill="none" xmlns="http://www.w3.org/2000/svg">
<path d="M24.1951 6.2439C25.9122 6.2439 27.3171 4.83902 27.3171 3.12195C27.3171 1.40488 25.9122 0 24.1951 0C22.478 0 21.0732 1.40488 21.0732 3.12195C21.0732 4.83902 22.478 6.2439 24.1951 6.2439ZM7.80488 16.3902C3.43415 16.3902 0 19.8244 0 24.1951C0 28.5659 3.43415 32 7.80488 32C12.1756 32 15.6098 28.5659 15.6098 24.1951C15.6098 19.8244 12.1756 16.3902 7.80488 16.3902ZM7.80488 29.6585C4.83902 29.6585 2.34146 27.161 2.34146 24.1951C2.34146 21.2293 4.83902 18.7317 7.80488 18.7317C10.7707 18.7317 13.2683 21.2293 13.2683 24.1951C13.2683 27.161 10.7707 29.6585 7.80488 29.6585ZM16.8585 14.0488L20.6049 10.3024L21.8537 11.5512C23.8829 13.5805 26.5366 14.8293 29.8146 14.8293V11.7073C27.4732 11.7073 25.6 10.7707 24.1951 9.36585L21.2293 6.4C20.4488 5.77561 19.6683 5.46341 18.7317 5.46341C17.7951 5.46341 17.0146 5.77561 16.5463 6.4L12.1756 10.7707C11.5512 11.3951 11.239 12.1756 11.239 12.9561C11.239 13.8927 11.5512 14.6732 12.1756 15.1415L17.1707 19.5122V27.3171H20.2927V17.639L16.8585 14.0488ZM29.6585 16.3902C25.2878 16.3902 21.8537 19.8244 21.8537 24.1951C21.8537 28.5659 25.2878 32 29.6585 32C34.0293 32 37.4634 28.5659 37.4634 24.1951C37.4634 19.8244 34.0293 16.3902 29.6585 16.3902ZM29.6585 29.6585C26.6927 29.6585 24.1951 27.161 24.1951 24.1951C24.1951 21.2293 26.6927 18.7317 29.6585 18.7317C32.6244 18.7317 35.1219 21.2293 35.1219 24.1951C35.1219 27.161 32.6244 29.6585 29.6585 29.6585Z" fill="#FF0101"/>
</svg>
